# xmcd
#
# Track frame offsets:
#	150
#	23180
#	41750
#	64534
#	79894
#	92507
#	106804
#	123364
#	138299
#	154332
#	169725
#	182160
#	195556
#
# Disc length: 2858 seconds
#
# Revision: 1
# Processed by: cddbd v1.4PL0 Copyright (c) Steve Scherf et al.
# Submitted via: CDmax 1.8
#
DISCID=a50b280d
DTITLE=Willie Nelson - Me and the Drummer
DYEAR=2000
DGENRE=Country
TTITLE0=Me and the Drummer
TTITLE1=Home Motel
TTITLE2=I Let My Mind Wander
TTITLE3=I'd Rather You Didn't Love Me
TTITLE4=Something To Think About
TTITLE5=No Tomorrow In Sight
TTITLE6=I'm So Ashamed
TTITLE7=A Moment Isn't Very Long
TTITLE8=Rainy Day Blues
TTITLE9=You Wouldn't Cross the Street To Say Good-bye
TTITLE10=I Guess I've Come To Live Here In Your Eyes
TTITLE11=Forgiving You Is Easy
TTITLE12=What A Way To Live
EXTD=and The Offenders
EXTT0=
EXTT1=
EXTT2=
EXTT3=
EXTT4=
EXTT5=
EXTT6=
EXTT7=
EXTT8=
EXTT9=
EXTT10=
EXTT11=
EXTT12=
PLAYORDER=
